HIERARCHY
ROOT mixamorig:Hips
{
	OFFSET 0.000000 104.274902 0.000000
	CHANNELS 6 Xposition Yposition Zposition Xrotation Yrotation Zrotation
	JOINT mixamorig:Spine
	{
		OFFSET 0.000000 10.181549 0.131524
		CHANNELS 6 Xposition Yposition Zposition Xrotation Yrotation Zrotation
		JOINT mixamorig:Spine1
		{
			OFFSET 0.000000 9.893990 -1.470706
			CHANNELS 3 Xrotation Yrotation Zrotation
			JOINT mixamorig:Spine2
			{
				OFFSET 0.000000 9.220787 -1.370637
				CHANNELS 3 Xrotation Yrotation Zrotation
				JOINT mixamorig:Neck
				{
					OFFSET 0.000000 16.740372 -2.049022
					CHANNELS 6 Xposition Yposition Zposition Xrotation Yrotation Zrotation
					JOINT mixamorig:Head
					{
						OFFSET 0.000000 9.617859 1.684976
						CHANNELS 6 Xposition Yposition Zposition Xrotation Yrotation Zrotation
						JOINT mixamorig:HeadTop_End
						{
							OFFSET 0.000000 22.037384 7.501072
							CHANNELS 6 Xposition Yposition Zposition Xrotation Yrotation Zrotation
							End Site
							{
								OFFSET 0.000000 23.106567 -2.828246
							}
						}
					}
				}
				JOINT mixamorig:RightShoulder
				{
					OFFSET -4.570000 11.014877 -2.160840
					CHANNELS 6 Xposition Yposition Zposition Xrotation Yrotation Zrotation
					JOINT mixamorig:RightArm
					{
						OFFSET -10.592867 -0.524796 -2.232105
						CHANNELS 3 Xrotation Yrotation Zrotation
						JOINT mixamorig:RightForeArm
						{
							OFFSET -27.841497 0.000000 -0.000002
							CHANNELS 3 Xrotation Yrotation Zrotation
							JOINT mixamorig:RightHand
							{
								OFFSET -28.328812 0.000000 -0.000001
								CHANNELS 3 Xrotation Yrotation Zrotation
								JOINT mixamorig:RightHandThumb1
								{
									OFFSET -2.464798 -1.573990 2.681911
									CHANNELS 6 Xposition Yposition Zposition Xrotation Yrotation Zrotation
									JOINT mixamorig:RightHandThumb2
									{
										OFFSET -3.244781 -1.873383 1.873376
										CHANNELS 3 Xrotation Yrotation Zrotation
										JOINT mixamorig:RightHandThumb3
										{
											OFFSET -2.646263 -1.527817 1.527818
											CHANNELS 6 Xposition Yposition Zposition Xrotation Yrotation Zrotation
											JOINT mixamorig:RightHandThumb4
											{
												OFFSET -1.994591 -1.151581 1.151575
												CHANNELS 6 Xposition Yposition Zposition Xrotation Yrotation Zrotation
												End Site
												{
													OFFSET -1.860176 -1.142715 1.365483
												}
											}
										}
									}
								}
								JOINT mixamorig:RightHandIndex1
								{
									OFFSET -9.108299 -0.517883 2.259803
									CHANNELS 6 Xposition Yposition Zposition Xrotation Yrotation Zrotation
									JOINT mixamorig:RightHandIndex2
									{
										OFFSET -3.699997 0.000000 0.000000
										CHANNELS 3 Xrotation Yrotation Zrotation
										JOINT mixamorig:RightHandIndex3
										{
											OFFSET -2.850006 0.000000 0.000000
											CHANNELS 3 Xrotation Yrotation Zrotation
											JOINT mixamorig:RightHandIndex4
											{
												OFFSET -2.772194 0.000000 0.000000
												CHANNELS 3 Xrotation Yrotation Zrotation
												End Site
												{
													OFFSET -2.772202 0.000000 -0.000484
												}
											}
										}
									}
								}
								JOINT mixamorig:RightHandMiddle1
								{
									OFFSET -9.532501 0.000000 -0.000000
									CHANNELS 6 Xposition Yposition Zposition Xrotation Yrotation Zrotation
									JOINT mixamorig:RightHandMiddle2
									{
										OFFSET -3.699997 0.000000 0.000000
										CHANNELS 3 Xrotation Yrotation Zrotation
										JOINT mixamorig:RightHandMiddle3
										{
											OFFSET -2.949997 0.000000 0.000000
											CHANNELS 3 Xrotation Yrotation Zrotation
											JOINT mixamorig:RightHandMiddle4
											{
												OFFSET -2.946594 0.000000 0.000000
												CHANNELS 3 Xrotation Yrotation Zrotation
												End Site
												{
													OFFSET -2.946602 0.000000 -0.000982
												}
											}
										}
									}
								}
								JOINT mixamorig:RightHandRing1
								{
									OFFSET -9.103600 -0.043106 -1.865100
									CHANNELS 6 Xposition Yposition Zposition Xrotation Yrotation Zrotation
									JOINT mixamorig:RightHandRing2
									{
										OFFSET -3.379303 0.000000 0.000000
										CHANNELS 3 Xrotation Yrotation Zrotation
										JOINT mixamorig:RightHandRing3
										{
											OFFSET -2.889694 0.000000 0.000000
											CHANNELS 3 Xrotation Yrotation Zrotation
											JOINT mixamorig:RightHandRing4
											{
												OFFSET -2.638802 0.000000 0.000000
												CHANNELS 3 Xrotation Yrotation Zrotation
												End Site
												{
													OFFSET -2.638802 0.000000 0.004218
												}
											}
										}
									}
								}
								JOINT mixamorig:RightHandPinky1
								{
									OFFSET -8.076698 -0.486725 -3.806299
									CHANNELS 6 Xposition Yposition Zposition Xrotation Yrotation Zrotation
									JOINT mixamorig:RightHandPinky2
									{
										OFFSET -3.600006 0.000000 0.000000
										CHANNELS 3 Xrotation Yrotation Zrotation
										JOINT mixamorig:RightHandPinky3
										{
											OFFSET -2.099998 0.000000 0.000000
											CHANNELS 3 Xrotation Yrotation Zrotation
											JOINT mixamorig:RightHandPinky4
											{
												OFFSET -2.115791 0.000000 0.000000
												CHANNELS 3 Xrotation Yrotation Zrotation
												End Site
												{
													OFFSET -2.115799 0.000000 0.000174
												}
											}
										}
									}
								}
							}
						}
					}
				}
				JOINT mixamorig:LeftShoulder
				{
					OFFSET 4.570400 11.014679 -2.160816
					CHANNELS 6 Xposition Yposition Zposition Xrotation Yrotation Zrotation
					JOINT mixamorig:LeftArm
					{
						OFFSET 10.592373 -0.524597 -2.232116
						CHANNELS 3 Xrotation Yrotation Zrotation
						JOINT mixamorig:LeftForeArm
						{
							OFFSET 27.841488 0.000000 0.000001
							CHANNELS 3 Xrotation Yrotation Zrotation
							JOINT mixamorig:LeftHand
							{
								OFFSET 28.328808 0.000000 -0.000000
								CHANNELS 3 Xrotation Yrotation Zrotation
								JOINT mixamorig:LeftHandThumb1
								{
									OFFSET 2.466103 -1.576202 2.681698
									CHANNELS 6 Xposition Yposition Zposition Xrotation Yrotation Zrotation
									JOINT mixamorig:LeftHandThumb2
									{
										OFFSET 3.243317 -1.872528 1.872530
										CHANNELS 3 Xrotation Yrotation Zrotation
										JOINT mixamorig:LeftHandThumb3
										{
											OFFSET 2.647881 -1.528763 1.528754
											CHANNELS 6 Xposition Yposition Zposition Xrotation Yrotation Zrotation
											JOINT mixamorig:LeftHandThumb4
											{
												OFFSET 1.998924 -1.154083 1.154080
												CHANNELS 6 Xposition Yposition Zposition Xrotation Yrotation Zrotation
												End Site
												{
													OFFSET 1.884041 -1.149155 1.337651
												}
											}
										}
									}
								}
								JOINT mixamorig:LeftHandIndex1
								{
									OFFSET 9.109299 -0.518005 2.259900
									CHANNELS 6 Xposition Yposition Zposition Xrotation Yrotation Zrotation
									JOINT mixamorig:LeftHandIndex2
									{
										OFFSET 3.699997 0.000000 0.000000
										CHANNELS 3 Xrotation Yrotation Zrotation
										JOINT mixamorig:LeftHandIndex3
										{
											OFFSET 2.850006 0.000000 0.000000
											CHANNELS 3 Xrotation Yrotation Zrotation
											JOINT mixamorig:LeftHandIndex4
											{
												OFFSET 2.774895 0.000000 0.000000
												CHANNELS 3 Xrotation Yrotation Zrotation
												End Site
												{
													OFFSET 2.774902 0.000000 -0.000072
												}
											}
										}
									}
								}
								JOINT mixamorig:LeftHandMiddle1
								{
									OFFSET 9.533401 0.000000 0.000000
									CHANNELS 6 Xposition Yposition Zposition Xrotation Yrotation Zrotation
									JOINT mixamorig:LeftHandMiddle2
									{
										OFFSET 3.699997 0.000000 0.000000
										CHANNELS 3 Xrotation Yrotation Zrotation
										JOINT mixamorig:LeftHandMiddle3
										{
											OFFSET 2.949997 0.000000 0.000000
											CHANNELS 3 Xrotation Yrotation Zrotation
											JOINT mixamorig:LeftHandMiddle4
											{
												OFFSET 2.952896 0.000000 0.000000
												CHANNELS 3 Xrotation Yrotation Zrotation
												End Site
												{
													OFFSET 2.952904 0.000000 0.000165
												}
											}
										}
									}
								}
								JOINT mixamorig:LeftHandRing1
								{
									OFFSET 9.104500 -0.042999 -1.865101
									CHANNELS 6 Xposition Yposition Zposition Xrotation Yrotation Zrotation
									JOINT mixamorig:LeftHandRing2
									{
										OFFSET 3.149994 0.000000 0.000000
										CHANNELS 3 Xrotation Yrotation Zrotation
										JOINT mixamorig:LeftHandRing3
										{
											OFFSET 2.950005 0.000000 0.000000
											CHANNELS 3 Xrotation Yrotation Zrotation
											JOINT mixamorig:LeftHandRing4
											{
												OFFSET 2.644302 0.000000 0.000000
												CHANNELS 3 Xrotation Yrotation Zrotation
												End Site
												{
													OFFSET 2.644302 0.000000 0.000083
												}
											}
										}
									}
								}
								JOINT mixamorig:LeftHandPinky1
								{
									OFFSET 8.077805 -0.486893 -3.806302
									CHANNELS 6 Xposition Yposition Zposition Xrotation Yrotation Zrotation
									JOINT mixamorig:LeftHandPinky2
									{
										OFFSET 3.600006 0.000000 0.000000
										CHANNELS 3 Xrotation Yrotation Zrotation
										JOINT mixamorig:LeftHandPinky3
										{
											OFFSET 2.099998 0.000000 0.000000
											CHANNELS 3 Xrotation Yrotation Zrotation
											JOINT mixamorig:LeftHandPinky4
											{
												OFFSET 2.125496 0.000000 0.000000
												CHANNELS 3 Xrotation Yrotation Zrotation
												End Site
												{
													OFFSET 2.125504 0.000000 -0.001254
												}
											}
										}
									}
								}
							}
						}
					}
				}
			}
		}
	}
	JOINT mixamorig:RightUpLeg
	{
		OFFSET -8.207800 -6.751701 -1.599544
		CHANNELS 6 Xposition Yposition Zposition Xrotation Yrotation Zrotation
		JOINT mixamorig:RightLeg
		{
			OFFSET 0.000004 -44.370152 0.345934
			CHANNELS 3 Xrotation Yrotation Zrotation
			JOINT mixamorig:RightFoot
			{
				OFFSET 0.000004 -44.423664 -3.043535
				CHANNELS 3 Xrotation Yrotation Zrotation
				JOINT mixamorig:RightToeBase
				{
					OFFSET 0.000001 -8.728691 10.710592
					CHANNELS 3 Xrotation Yrotation Zrotation
					JOINT mixamorig:RightToe_End
					{
						OFFSET 0.000000 -0.000665 9.278101
						CHANNELS 3 Xrotation Yrotation Zrotation
						End Site
						{
							OFFSET 0.000000 -0.000665 9.278103
						}
					}
				}
			}
		}
	}
	JOINT mixamorig:LeftUpLeg
	{
		OFFSET 8.207800 -6.751701 -1.599544
		CHANNELS 6 Xposition Yposition Zposition Xrotation Yrotation Zrotation
		JOINT mixamorig:LeftLeg
		{
			OFFSET 0.000004 -44.370037 0.346940
			CHANNELS 3 Xrotation Yrotation Zrotation
			JOINT mixamorig:LeftFoot
			{
				OFFSET 0.000004 -44.423611 -3.044388
				CHANNELS 3 Xrotation Yrotation Zrotation
				JOINT mixamorig:LeftToeBase
				{
					OFFSET 0.000001 -8.728690 10.710592
					CHANNELS 3 Xrotation Yrotation Zrotation
					JOINT mixamorig:LeftToe_End
					{
						OFFSET 0.000000 -0.000680 9.278101
						CHANNELS 3 Xrotation Yrotation Zrotation
						End Site
						{
							OFFSET 0.000000 -0.000680 9.278101
						}
					}
				}
			}
		}
	}
}
MOTION
Frames: 4
Frame Time: 0.016667
-3.243614 268.709625 -20.256485 20.309605 26.133651 48.141571 -0.000036 10.181540 0.131532 7.624636 -7.021081 -3.332817 15.098405 -13.616727 -5.292282 15.098415 -13.616720 -5.292283 -0.000007 16.740366 -2.049053 3.539345 6.807199 -23.005040 -0.000001 9.617827 1.684963 2.412689 3.224869 3.251435 -0.000007 22.037369 7.501047 -0.000003 0.000001 0.000002 -4.569999 11.014890 -2.160886 3.191588 5.163158 11.492018 2.596828 -4.406062 56.115304 107.407634 50.586772 -101.661383 45.173334 -28.092187 -32.814384 -2.464808 -1.573970 2.681909 -18.927665 9.461543 -26.577586 -1.788074 -4.854583 -7.185786 -2.646262 -1.527815 1.527800 0.000004 -0.000010 -0.000007 -1.994572 -1.151567 1.151595 0.000003 -0.000000 0.000002 -9.108302 -0.517872 2.259803 -3.458391 -0.378519 -12.168906 -6.698417 2.124190 90.487562 0.000001 0.000000 -0.000001 0.000001 0.000000 -0.000000 -9.532508 0.000001 0.000002 -7.231985 -1.805190 -7.224842 -7.324528 2.691222 96.841707 -0.000001 -0.000001 0.000004 0.000000 0.000001 0.000004 -9.103621 -0.043127 -1.865099 -7.572649 -11.307912 -9.866588 -2.685321 5.683392 95.117891 -0.000000 -0.000000 0.000002 0.000000 -0.000000 -0.000001 -8.076700 -0.486725 -3.806301 -10.346933 -15.536355 -9.606782 -1.526882 10.035933 93.711029 -0.000003 0.000002 0.000002 -0.000000 0.000000 0.000001 4.570407 11.014680 -2.160869 1.100691 -19.409977 -6.067247 -1.845587 -22.069284 -22.130682 39.297920 -54.854332 -3.035382 -2.826520 5.159241 60.073276 2.466082 -1.576195 2.681691 -16.888367 9.733470 9.830827 -15.926905 1.796908 23.436930 2.647870 -1.528769 1.528752 0.000029 0.000018 0.000004 1.998929 -1.154085 1.154089 0.000001 -0.000001 -0.000002 9.109269 -0.517998 2.259896 3.662508 -5.034408 -12.866185 -7.958254 -4.111137 -81.804677 -0.000000 0.000000 -0.000001 -0.000000 0.000000 0.000000 9.533368 0.000018 -0.000004 1.463238 1.360088 -12.153588 -5.439152 -5.063930 -75.248017 0.000000 0.000000 0.000000 0.000000 -0.000000 -0.000005 9.104472 -0.042976 -1.865106 -4.706449 10.423803 -15.675913 -1.018018 -5.577189 -83.496044 -0.000000 0.000000 0.000001 -0.000001 0.000000 0.000001 8.077785 -0.486893 -3.806301 -8.342596 11.387937 -18.213352 0.303251 -7.300120 -78.689045 -0.000001 -0.000001 0.000001 -0.000000 0.000000 -0.000001 -8.207842 -6.751716 -1.599531 -46.331154 9.445490 -53.274878 23.263918 -26.343517 -1.504815 33.755891 1.312366 7.540728 0.103834 0.137879 -0.019545 -0.000001 0.000002 0.000001 8.207788 -6.751690 -1.599552 -90.489918 10.021978 42.826533 113.477958 -2.142448 -0.252755 -1.468074 0.551618 -5.689107 5.473973 -4.013654 14.230568 0.000001 0.000001 0.000004 
-3.578972 269.787170 -20.625546 18.758300 26.034185 49.639445 0.000007 10.181533 0.131512 7.702128 -7.226775 -3.380029 15.266272 -14.051996 -5.258951 15.266274 -14.051990 -5.258940 -0.000003 16.740358 -2.049008 3.000393 7.216732 -23.974649 0.000004 9.617874 1.684992 2.802719 3.677179 3.883944 0.000002 22.037354 7.501071 -0.000002 0.000000 0.000001 -4.570003 11.014871 -2.160840 3.130211 5.418346 12.467035 0.744803 -3.933576 55.642409 106.846056 50.737056 -101.600601 47.379694 -27.197525 -27.850165 -2.464829 -1.573987 2.681913 -18.994869 9.438912 -26.634814 -1.728649 -4.344628 -6.911056 -2.646265 -1.527853 1.527806 -0.000002 -0.000003 -0.000006 -1.994591 -1.151587 1.151563 -0.000001 -0.000003 0.000003 -9.108318 -0.517898 2.259803 -3.458328 -0.406046 -12.384102 -6.652737 2.142394 90.040014 0.000000 0.000000 0.000002 0.000001 0.000001 0.000002 -9.532504 0.000011 0.000000 -7.217824 -1.838129 -7.419750 -7.292184 2.720258 96.447954 -0.000002 -0.000001 0.000004 0.000000 0.000001 0.000003 -9.103628 -0.043112 -1.865100 -7.539583 -11.338070 -9.979037 -2.675054 5.665877 94.785670 -0.000000 -0.000000 0.000005 0.000000 -0.000000 0.000002 -8.076702 -0.486721 -3.806296 -10.294988 -15.567534 -9.708416 -1.523722 10.008683 93.415186 -0.000003 0.000002 0.000008 -0.000000 -0.000000 -0.000001 4.570393 11.014676 -2.160800 1.032331 -19.853932 -6.615737 -3.020681 -23.042208 -23.480853 38.653707 -50.365012 -2.884035 -2.211795 2.360106 57.782553 2.466083 -1.576213 2.681695 -16.436321 9.758909 9.588010 -15.674736 1.838297 23.064751 2.647876 -1.528737 1.528750 0.000028 0.000009 -0.000001 1.998929 -1.154086 1.154081 -0.000001 -0.000004 -0.000005 9.109278 -0.518031 2.259889 3.859512 -5.247281 -13.961839 -7.838426 -4.127417 -81.124725 -0.000000 -0.000000 0.000001 0.000000 -0.000000 0.000002 9.533412 -0.000018 -0.000009 1.710390 1.317165 -12.972464 -5.383040 -5.061700 -74.820214 0.000000 0.000000 -0.000001 0.000000 0.000000 -0.000001 9.104495 -0.043006 -1.865112 -4.666205 10.559757 -16.587306 -1.017869 -5.536590 -83.078022 0.000000 0.000000 0.000002 0.000000 0.000000 0.000002 8.077816 -0.486909 -3.806306 -8.348577 11.660935 -19.548048 0.290532 -7.268190 -78.316206 -0.000000 -0.000001 0.000001 -0.000001 -0.000000 0.000002 -8.207811 -6.751713 -1.599543 -45.296612 9.802116 -56.012722 23.170233 -29.380035 -0.181567 33.158844 0.332485 6.016717 0.159204 0.153771 -0.019209 -0.000003 0.000000 0.000002 8.207803 -6.751696 -1.599561 -95.216614 9.965418 43.204625 113.758604 -3.208679 -0.314604 -0.123749 0.498794 -5.968336 5.963146 -3.851594 14.715223 0.000002 -0.000000 0.000000 
-3.833626 270.759705 -21.025246 17.212382 25.690138 50.821778 0.000006 10.181543 0.131519 7.799481 -7.435970 -3.409474 15.488122 -14.426895 -5.135154 15.488116 -14.426886 -5.135167 -0.000008 16.740376 -2.049008 2.441919 7.632711 -24.839371 -0.000005 9.617853 1.685002 3.163120 4.145046 4.475937 -0.000006 22.037369 7.501063 0.000002 0.000000 0.000000 -4.570002 11.014891 -2.160848 3.059071 5.850996 13.487053 -1.145096 -3.539582 54.852273 106.413951 50.879483 -101.545570 49.356415 -26.257105 -23.263819 -2.464795 -1.573995 2.681914 -19.059141 9.416862 -26.689562 -1.672396 -3.854468 -6.648700 -2.646297 -1.527824 1.527813 -0.000004 -0.000008 -0.000005 -1.994575 -1.151584 1.151575 0.000001 -0.000000 -0.000000 -9.108302 -0.517876 2.259804 -3.458062 -0.431918 -12.581056 -6.608672 2.159410 89.610217 0.000001 0.000000 0.000001 -0.000000 -0.000000 -0.000001 -9.532515 0.000009 -0.000000 -7.203783 -1.869448 -7.597274 -7.260760 2.747779 96.069534 -0.000001 -0.000000 0.000001 0.000000 0.000001 0.000000 -9.103604 -0.043123 -1.865098 -7.506896 -11.366499 -10.077579 -2.665183 5.649203 94.466120 -0.000000 -0.000000 -0.000001 -0.000000 0.000000 -0.000002 -8.076694 -0.486711 -3.806299 -10.243878 -15.597162 -9.796359 -1.520758 9.982739 93.130367 -0.000003 0.000002 0.000004 0.000000 0.000000 0.000005 4.570397 11.014697 -2.160821 0.978616 -20.147574 -7.025145 -4.433038 -24.044072 -25.504317 37.884290 -45.484630 -2.581228 -1.378737 -0.513529 55.654693 2.466106 -1.576185 2.681699 -15.966042 9.781789 9.334245 -15.411745 1.878904 22.677196 2.647879 -1.528784 1.528743 0.000026 0.000011 -0.000003 1.998917 -1.154069 1.154086 -0.000002 0.000000 -0.000000 9.109303 -0.518030 2.259902 4.059987 -5.477639 -15.088718 -7.712809 -4.142537 -80.410909 0.000000 0.000000 0.000002 0.000000 0.000000 0.000004 9.533404 -0.000005 0.000004 1.965806 1.265796 -13.812498 -5.324042 -5.058743 -74.368876 -0.000000 0.000000 0.000002 -0.000001 -0.000000 -0.000000 9.104510 -0.042996 -1.865100 -4.618982 10.699417 -17.524799 -1.017679 -5.494315 -82.636908 -0.000001 0.000000 0.000003 -0.000000 0.000000 0.000002 8.077802 -0.486883 -3.806299 -8.342588 11.942220 -20.927976 0.277194 -7.235027 -77.922138 0.000000 0.000000 0.000001 -0.000001 -0.000000 -0.000001 -8.207787 -6.751706 -1.599540 -44.297130 9.918773 -58.222479 22.957808 -32.535729 1.074511 32.213074 -0.845848 4.647363 0.160088 0.127924 -0.008839 -0.000002 -0.000001 0.000002 8.207790 -6.751707 -1.599556 -99.857236 10.217920 43.774580 114.091084 -4.589832 -0.394663 1.681643 0.400483 -6.390904 6.060071 -3.589620 14.746467 0.000001 0.000001 -0.000001 
-3.998207 271.630432 -21.450092 15.763966 25.196312 51.688375 -0.000007 10.181567 0.131514 7.908182 -7.663859 -3.411345 15.747976 -14.756081 -4.907216 15.747978 -14.756088 -4.907228 -0.000007 16.740364 -2.049024 1.955530 8.009561 -25.521651 -0.000002 9.617847 1.684976 3.451109 4.615009 4.989671 -0.000025 22.037338 7.501082 0.000001 -0.000001 0.000001 -4.570003 11.014894 -2.160872 2.977381 6.419390 14.508034 -3.051274 -3.192523 53.782808 106.100999 50.989623 -101.499596 51.089545 -25.276350 -19.195191 -2.464813 -1.573997 2.681913 -19.120204 9.395507 -26.741613 -1.619454 -3.386588 -6.399821 -2.646288 -1.527795 1.527815 0.000001 -0.000010 -0.000002 -1.994586 -1.151591 1.151571 0.000001 0.000000 -0.000002 -9.108312 -0.517873 2.259804 -3.457623 -0.456107 -12.760243 -6.566480 2.175188 89.200283 -0.000001 -0.000000 0.000003 -0.000001 -0.000000 0.000005 -9.532500 -0.000010 0.000001 -7.189969 -1.899018 -7.757940 -7.230484 2.773699 95.708340 -0.000001 0.000000 0.000004 -0.000000 0.000001 0.000007 -9.103607 -0.043091 -1.865099 -7.474824 -11.393121 -10.163116 -2.655787 5.633440 94.160803 -0.000000 -0.000000 0.000005 -0.000000 0.000000 0.000002 -8.076698 -0.486701 -3.806297 -10.193989 -15.625149 -9.871602 -1.518005 9.958231 92.858088 -0.000002 0.000002 0.000005 -0.000000 -0.000000 0.000002 4.570399 11.014704 -2.160853 0.941472 -20.315098 -7.312379 -6.154596 -25.134198 -28.143882 36.964010 -40.164709 -2.178830 -0.373224 -3.471103 53.880620 2.466113 -1.576197 2.681693 -15.485197 9.801485 9.073843 -15.142179 1.917991 22.280680 2.647893 -1.528776 1.528745 0.000028 0.000013 0.000001 1.998913 -1.154095 1.154080 -0.000001 0.000002 0.000001 9.109293 -0.518016 2.259892 4.260363 -5.721805 -16.229127 -7.583485 -4.156229 -79.675489 0.000000 0.000000 -0.000000 0.000000 -0.000000 0.000002 9.533403 0.000015 -0.000003 2.225256 1.206800 -14.660728 -5.263153 -5.055073 -73.901977 -0.000000 0.000000 -0.000001 0.000000 0.000000 -0.000000 9.104502 -0.043008 -1.865109 -4.565648 10.840486 -18.473812 -1.017537 -5.451093 -82.180440 -0.000001 -0.000000 0.000001 -0.000001 0.000000 0.000001 8.077790 -0.486894 -3.806314 -8.324985 12.226979 -22.331290 0.263389 -7.201140 -77.513809 -0.000002 0.000000 0.000002 -0.000003 -0.000000 0.000002 -8.207801 -6.751691 -1.599548 -43.444231 9.858929 -59.833475 22.585422 -35.539400 2.153296 31.063058 -2.079412 3.655656 0.094413 0.074311 0.004766 -0.000002 0.000001 -0.000001 8.207788 -6.751696 -1.599538 -104.394722 10.957134 44.525440 114.372296 -6.145365 -0.490316 3.961685 0.247373 -6.946297 5.570190 -3.174654 14.079030 -0.000002 -0.000002 -0.000001 
